<?xml version="1.0" encoding="utf-8"?>
<!-- Generator: Adobe Illustrator 16.0.0, SVG Export Plug-In . SVG Version: 6.00 Build 0)  -->
<!DOCTYPE svg PUBLIC "-//W3C//DTD SVG 1.1//EN" "http://www.w3.org/Graphics/SVG/1.1/DTD/svg11.dtd">
<svg version="1.1" id="Layer_1" xmlns="http://www.w3.org/2000/svg" xmlns:xlink="http://www.w3.org/1999/xlink" x="0px" y="0px"
	 width="306px" height="342.197px" viewBox="0 0 306 342.197" enable-background="new 0 0 306 342.197" xml:space="preserve">
<text transform="matrix(1 0 0 1 57.0649 74.5225)" fill="#4E4E4E" font-family="'OpenSans-Light'" font-size="12.1368">Plot / Land</text>
<path fill="#86BC65" d="M233.141,129.243c-1.202-1.783-2.739-3.153-3.975-4.253c-1.107-0.987-2.083-1.856-2.329-2.608
	c0.516-0.201,0.882-0.702,0.882-1.288c0-0.57-0.348-1.061-0.843-1.272l1.021-4.006c0.109-0.387,0.039-0.744-0.192-0.982
	c-0.232-0.238-0.591-0.316-0.983-0.212c-0.007,0.002-0.015,0.003-0.022,0.005c-0.019,0.006-1.923,0.615-2.556,0.796
	c-0.411,0.118-1.133,0.118-1.544,0.001c-0.64-0.181-2.563-0.792-2.583-0.799c-0.007-0.001-0.015-0.003-0.022-0.005
	c-0.392-0.103-0.75-0.025-0.982,0.214c-0.233,0.239-0.303,0.599-0.19,0.989c0.003,0.005,0.003,0.009,0.005,0.013l1.296,3.998
	c-0.479,0.217-0.814,0.701-0.814,1.26c0,0.586,0.365,1.087,0.881,1.288c-0.246,0.752-1.222,1.621-2.329,2.608
	c-1.234,1.1-2.772,2.47-3.975,4.253c-1.417,2.101-2.106,4.362-2.106,6.909c0,2.298,0.923,4.406,2.6,5.935
	c1.795,1.64,4.303,2.505,7.253,2.505h3.764c2.95,0,5.458-0.865,7.253-2.505c1.677-1.529,2.6-3.637,2.6-5.935
	C235.248,133.604,234.559,131.344,233.141,129.243 M224.446,121.594L224.446,121.594h-1.864h-0.002h-1.89
	c-0.275,0-0.5-0.223-0.5-0.5c0-0.275,0.224-0.499,0.499-0.5h0.001h0.001h2.351h0.001h0.002h0.938h0.002h0.002h2.351
	c0.275,0,0.5,0.225,0.5,0.5c0,0.277-0.225,0.5-0.5,0.5H224.446z M219.652,115.458c0.021-0.001,0.057-0.001,0.11,0.013
	c0.182,0.058,1.964,0.622,2.596,0.802c0.569,0.162,1.461,0.162,2.03-0.002c0.625-0.179,2.387-0.741,2.568-0.799
	c0.053-0.013,0.089-0.015,0.109-0.013c0.001,0.023-0.001,0.061-0.018,0.12c-0.002,0.004-0.003,0.008-0.004,0.013l-1.052,4.12h-1.444
	l0.334-1.334c0.059-0.236-0.085-0.475-0.321-0.535c-0.236-0.058-0.476,0.085-0.535,0.322l-0.387,1.547h-0.252L223,118.165
	c-0.059-0.237-0.3-0.381-0.534-0.322c-0.236,0.06-0.381,0.299-0.321,0.535l0.334,1.334h-1.468l-1.342-4.139
	C219.653,115.517,219.651,115.479,219.652,115.458 M232.053,141.436c-1.63,1.488-3.932,2.274-6.658,2.274h-3.764
	c-2.727,0-5.028-0.786-6.658-2.274c-1.491-1.36-2.313-3.237-2.313-5.284c0-5.349,3.345-8.327,5.786-10.503
	c1.316-1.173,2.39-2.129,2.633-3.172h0.881l-0.277,0.831c-0.077,0.231,0.048,0.481,0.279,0.558c0.046,0.015,0.093,0.022,0.14,0.022
	c0.185,0,0.356-0.116,0.418-0.302l0.37-1.109h1.246l0.37,1.109c0.062,0.186,0.233,0.302,0.419,0.302c0.046,0,0.093-0.007,0.14-0.022
	c0.23-0.077,0.355-0.327,0.278-0.558l-0.276-0.831h0.881c0.242,1.043,1.315,1.999,2.632,3.172c2.441,2.176,5.786,5.154,5.786,10.503
	C234.366,138.198,233.544,140.076,232.053,141.436"/>
<path fill="#86BC65" d="M223.513,131.417c1.036,0,1.912,0.552,1.912,1.206c0,0.243,0.196,0.44,0.44,0.44s0.441-0.197,0.441-0.44
	c0-1.059-1.003-1.91-2.354-2.063v-0.526c0-0.243-0.196-0.44-0.44-0.44c-0.243,0-0.441,0.197-0.441,0.44v0.526
	c-1.35,0.153-2.353,1.004-2.353,2.063c0,1.171,1.228,2.088,2.794,2.088c1.036,0,1.912,0.552,1.912,1.205
	c0,0.654-0.876,1.206-1.912,1.206s-1.911-0.552-1.911-1.206c0-0.243-0.198-0.44-0.442-0.44c-0.243,0-0.44,0.197-0.44,0.44
	c0,1.059,1.003,1.91,2.353,2.063v0.526c0,0.243,0.198,0.44,0.441,0.44c0.244,0,0.44-0.197,0.44-0.44v-0.526
	c1.351-0.153,2.354-1.004,2.354-2.063c0-1.171-1.229-2.088-2.794-2.088c-1.036,0-1.911-0.552-1.911-1.205
	C221.602,131.969,222.477,131.417,223.513,131.417"/>
<path fill="#86BC65" d="M223.513,127.24c-3.876,0-7.029,3.154-7.029,7.03c0,3.875,3.153,7.029,7.029,7.029s7.029-3.154,7.029-7.029
	C230.542,130.394,227.389,127.24,223.513,127.24 M223.513,140.416c-3.39,0-6.146-2.757-6.146-6.146c0-3.39,2.757-6.147,6.146-6.147
	s6.146,2.757,6.146,6.147C229.659,137.659,226.903,140.416,223.513,140.416"/>
<text transform="matrix(1 -0.0098 0.0098 1 242.437 134.105)" fill="#4E4E4E" font-family="'OpenSans-Light'" font-size="12.1368">Equity</text>
<path fill="#86BC65" d="M33.258,158.434c-4.16,0-7.533,3.373-7.533,7.533s3.373,7.532,7.533,7.532s7.533-3.372,7.533-7.532
	C40.786,161.809,37.416,158.438,33.258,158.434 M33.258,172.558c-3.64,0-6.591-2.951-6.591-6.591c0-3.641,2.951-6.591,6.591-6.591
	s6.591,2.951,6.591,6.591C39.845,169.604,36.897,172.554,33.258,172.558"/>
<path fill="#86BC65" d="M33.258,156.473c-5.244,0-9.494,4.25-9.494,9.494c0,5.243,4.25,9.494,9.494,9.494s9.494-4.251,9.494-9.494
	C42.746,160.726,38.499,156.479,33.258,156.473 M33.258,174.52c-4.724,0-8.553-3.829-8.553-8.553c0-4.723,3.829-8.552,8.553-8.552
	s8.553,3.829,8.553,8.552C41.805,170.688,37.979,174.514,33.258,174.52"/>
<path fill="#86BC65" d="M14.509,153.61h3.935c0.272-0.013,0.482-0.243,0.469-0.514c-0.005-0.119-0.053-0.232-0.136-0.318
	l-1.588-1.594c4.426-3.557,10.898-2.853,14.454,1.574c0.144,0.179,0.281,0.361,0.412,0.549c0.15,0.213,0.443,0.265,0.657,0.115
	c0.213-0.149,0.264-0.443,0.115-0.656c-3.553-5.081-10.551-6.32-15.632-2.769c-0.231,0.162-0.457,0.333-0.676,0.512l-1.677-1.677
	c-0.128-0.135-0.326-0.175-0.495-0.102c-0.172,0.075-0.281,0.248-0.273,0.435v3.936C14.074,153.361,14.248,153.61,14.509,153.61
	 M15.015,150.301l1.141,1.159c0.001,0.001-0.008,0.002-0.007,0.003c0.013,0.014,0.022,0.046,0.036,0.059l1.123,1.146h-2.293V150.301
	z"/>
<path fill="#86BC65" d="M32.434,178.875h-3.936c-0.272,0.013-0.482,0.243-0.47,0.515c0.006,0.119,0.055,0.231,0.137,0.317
	l1.589,1.594c-4.426,3.558-10.898,2.853-14.455-1.574c-0.144-0.178-0.281-0.361-0.412-0.549c-0.15-0.213-0.443-0.266-0.656-0.115
	c-0.213,0.149-0.265,0.443-0.115,0.656c3.552,5.081,10.55,6.32,15.631,2.768c0.232-0.161,0.457-0.332,0.676-0.512l1.678,1.678
	c0.184,0.185,0.482,0.185,0.666,0c0.088-0.088,0.137-0.208,0.137-0.332v-3.937C32.904,179.124,32.693,178.875,32.434,178.875
	 M31.963,182.184l-1.159-1.159c-0.001-0.001-0.001-0.002-0.001-0.002c-0.014-0.015-0.027-0.047-0.042-0.06l-1.127-1.146h2.329
	V182.184z"/>
<path fill="#86BC65" d="M18.193,177.228c0.26,0,0.431-0.232,0.431-0.492v-3.45c0-0.014,0.019-0.027,0.018-0.04
	c-0.083-1.014-0.687-1.911-1.595-2.37c-0.016-0.008-0.009-0.016-0.027-0.021l-1.77-0.647v-0.604
	c-0.007-0.177-0.109-0.335-0.267-0.415c-0.014-0.008-0.037-0.014-0.052-0.02l-0.004-0.001l-0.917-0.376
	c1.689-0.775,2.82-2.412,2.948-4.266c0.727-0.323,1.119-1.12,0.929-1.893c-0.096-0.4-0.371-0.735-0.746-0.906l0.083-1.199
	c0.202-2.938-2.015-5.484-4.953-5.686c-1.602-0.11-3.169,0.507-4.264,1.681c-1.014,1.077-1.53,2.53-1.422,4.005l0.083,1.198
	c-0.377,0.17-0.653,0.506-0.749,0.907c-0.189,0.773,0.203,1.571,0.931,1.893c0.128,1.857,1.263,3.495,2.957,4.268l-0.897,0.37
	l0.002,0.004c-0.016,0.007-0.049,0.013-0.064,0.021c-0.157,0.08-0.26,0.238-0.267,0.415v0.604l-1.774,0.647
	c-0.015,0.006-0.029,0.014-0.042,0.021c-0.914,0.457-1.526,1.354-1.62,2.37c-0.001,0.013-0.016,0.026-0.016,0.04v3.45
	c0.016,0.271,0.238,0.485,0.51,0.492h4.627l1.313,1.739c0.164,0.208,0.467,0.244,0.676,0.079c0.028-0.022,0.054-0.048,0.076-0.076
	l1.313-1.742H18.193z M13.116,172.859c0.067,0.032,0.14,0.05,0.214,0.047c0.148-0.001,0.288-0.071,0.376-0.191l1.209-1.614
	l0.941,0.339c-0.48,0.487-0.776,1.125-0.836,1.807c-0.001,0.013-0.005,0.025-0.005,0.039v3.001H13.75L13.116,172.859z
	 M8.815,176.286v-3.001c0-0.014,0.003-0.027,0.002-0.04c-0.059-0.683-0.354-1.322-0.835-1.81l0.932-0.336l1.21,1.612
	c0.15,0.2,0.431,0.248,0.638,0.109l0.042-0.017l-0.645,3.481H8.815z M12.765,171.487l1.366-0.91l-0.911,1.214L12.765,171.487z
	 M12.975,170.203l-1.061,0.719l-1.058-0.716v-1.07c0.344,0.076,0.695,0.114,1.046,0.113c0.361,0.002,0.721-0.039,1.073-0.12V170.203
	z M11.067,171.487l-0.455,0.304l-0.911-1.214L11.067,171.487z M17.683,173.305v2.981h-1.726v-2.981
	c0.078-0.596,0.369-1.139,0.863-1.467C17.313,172.166,17.683,172.708,17.683,173.305 M8.695,157.165
	c1.655-1.772,4.432-1.867,6.205-0.213c0.966,0.902,1.474,2.192,1.384,3.511l-0.052,0.75l-0.381-1.57
	c-0.006-0.025-0.015-0.05-0.024-0.074c-0.362-0.841-1.172-1.403-2.086-1.447l-0.449-0.019c-0.159-0.007-0.312,0.067-0.404,0.197
	c-0.833,1.171-2.233,1.8-3.661,1.648l-0.754-0.081c-0.362-0.04-0.687,0.222-0.726,0.584c-0.001,0.006-0.001,0.012-0.002,0.018
	l-0.116,1.452l-0.004-0.001l-0.1-1.457C7.436,159.248,7.86,158.052,8.695,157.165 M7.781,164.176c0-0.229-0.164-0.424-0.39-0.463
	c-0.334-0.059-0.578-0.35-0.577-0.688c0-0.057,0.007-0.112,0.02-0.167c0.021-0.092,0.074-0.174,0.149-0.229
	c0.051,0.045,0.107,0.083,0.167,0.115c0.013,0.006,0.027,0.012,0.04,0.017c0.687,0.275,0.894,0.309,1.107,0.177
	c0.129-0.08,0.213-0.218,0.225-0.369l0.139-1.735l0.466,0.05c1.674,0.18,3.324-0.511,4.372-1.829l0.201,0.01
	c0.54,0.025,1.021,0.349,1.246,0.841l0.708,2.919c0.062,0.253,0.316,0.408,0.569,0.347c0.079-0.02,0.151-0.059,0.21-0.113
	l0.387-0.361c0.013-0.013,0.025-0.025,0.038-0.037c0.056,0.053,0.097,0.121,0.115,0.198c0.013,0.055,0.02,0.11,0.02,0.167
	c0,0.339-0.243,0.629-0.576,0.688c-0.226,0.043-0.389,0.241-0.389,0.471c-0.002,2.277-1.849,4.122-4.127,4.121
	C9.623,168.302,7.779,166.454,7.781,164.176 M6.07,173.305c0.074-0.598,0.403-1.135,0.903-1.472
	c0.499,0.337,0.828,0.874,0.902,1.472v2.981H6.07V173.305z M11.955,177.889l-0.913-1.217l0.856-4.606l0.018-0.012l0.108,0.072
	l0.844,4.546L11.955,177.889z"/>
<path fill="#86BC65" d="M36.004,163.025c0.26,0,0.471-0.211,0.471-0.471c0-0.261-0.211-0.471-0.471-0.471h-5.493
	c-0.26,0-0.47,0.21-0.47,0.471c0,0.26,0.21,0.471,0.47,0.471h1.572c0.877,0,1.616,0.549,1.826,1.412h-3.398
	c-0.26,0-0.47,0.211-0.47,0.471s0.21,0.471,0.47,0.471h3.398c-0.226,0.825-0.97,1.401-1.826,1.413h-1.572
	c-0.257-0.004-0.467,0.202-0.471,0.459c-0.001,0.131,0.052,0.257,0.148,0.346l3.928,3.711c0.189,0.176,0.487,0.165,0.663-0.025
	c0.174-0.187,0.166-0.478-0.016-0.655l-3.068-2.894h0.388c1.378-0.002,2.555-0.996,2.787-2.354h1.134
	c0.26,0,0.471-0.211,0.471-0.471s-0.211-0.471-0.471-0.471h-1.134c-0.087-0.526-0.324-1.016-0.682-1.412H36.004z"/>
<text transform="matrix(1 0 0 1 267.0054 213.0254)" fill="#4E4E4E" font-family="'OpenSans-Light'" font-size="12.1368">Return</text>
<text transform="matrix(1 0 0 1 266.9565 233.2646)" fill="#272361" font-family="'OpenSans-Light'" font-size="16.9915">20%</text>
<path fill="#86BC65" d="M225.615,218.723c-0.109,0.02-0.219,0.028-0.325,0.028c-0.863,0-1.63-0.619-1.79-1.497
	c-0.178-0.99,0.48-1.938,1.471-2.115c4.457-0.804,9.244-3.076,14.242-6.726l-2.103-2.55l10.027-1.676l-3.561,9.521l-2.046-2.481
	C235.965,215.327,230.746,217.798,225.615,218.723 M228.932,224.212h-1.82c-1.004,0-1.82,0.814-1.82,1.82v5.462
	c0,1.006,0.816,1.82,1.82,1.82h1.82c1.007,0,1.821-0.814,1.821-1.82v-5.462C230.753,225.026,229.939,224.212,228.932,224.212
	 M243.497,216.931h-1.821c-1.006,0-1.819,0.813-1.819,1.82v12.743c0,1.007,0.813,1.82,1.819,1.82h1.821
	c1.006,0,1.82-0.814,1.82-1.82v-12.743C245.317,217.745,244.502,216.931,243.497,216.931 M250.778,213.289h-1.82
	c-1.006,0-1.82,0.814-1.82,1.821v16.384c0,1.007,0.814,1.82,1.82,1.82h1.82c1.007,0,1.82-0.813,1.82-1.82V215.11
	C252.598,214.104,251.785,213.289,250.778,213.289 M236.214,220.571h-1.82c-1.005,0-1.82,0.814-1.82,1.82v9.103
	c0,1.007,0.815,1.82,1.82,1.82h1.82c1.007,0,1.82-0.813,1.82-1.82v-9.103C238.035,221.386,237.221,220.571,236.214,220.571"/>
<text transform="matrix(1 0 0 1 52.6548 158.3145)" fill="#4E4E4E" font-family="'OpenSans-Light'" font-size="12.1368">Return Target</text>
<text transform="matrix(1 0 0 1 64.6577 178.8379)" fill="#272361" font-family="'OpenSans-Light'" font-size="16.9915">25%</text>
<text transform="matrix(1 0 0 1 64.6216 282.957)" fill="#4E4E4E" font-family="'OpenSans-Light'" font-size="12.1368">Investor</text>
<text transform="matrix(1 0 0 1 75.0005 307.1963)" fill="#272361" font-family="'OpenSans-Light'" font-size="16.9915">5</text>
<path fill="#86BC65" d="M27.649,273.693c-0.432,0-0.782,0.351-0.782,0.782s0.35,0.782,0.782,0.782s0.782-0.351,0.782-0.782
	S28.081,273.693,27.649,273.693"/>
<path fill="#86BC65" d="M32.342,279.951c-0.431,0-0.782-0.351-0.782-0.782c0-0.431,0.351-0.782,0.782-0.782
	c0.277,0,0.57,0.142,0.846,0.409c0.311,0.302,0.806,0.292,1.106-0.019c0.3-0.31,0.293-0.805-0.018-1.105
	c-0.397-0.385-0.794-0.602-1.152-0.721v-0.911c0-0.432-0.35-0.782-0.782-0.782c-0.432,0-0.782,0.351-0.782,0.782v0.917
	c-0.911,0.323-1.565,1.192-1.565,2.212c0,1.294,1.053,2.347,2.347,2.347c0.432,0,0.782,0.352,0.782,0.782
	c0,0.432-0.35,0.782-0.782,0.782c-0.334,0-0.695-0.21-1.016-0.591c-0.277-0.331-0.771-0.374-1.102-0.096s-0.373,0.771-0.095,1.102
	c0.418,0.498,0.91,0.845,1.431,1.02v0.913c0,0.432,0.35,0.782,0.782,0.782c0.432,0,0.782-0.351,0.782-0.782v-0.917
	c0.911-0.323,1.565-1.192,1.565-2.213C34.689,281.004,33.636,279.951,32.342,279.951"/>
<path fill="#86BC65" d="M49.239,280.421c-1.725,0-3.129,1.403-3.129,3.128v5.576c-1.039-0.268-2.185,0.009-2.994,0.817l-5.247,5.246
	c-0.739,0.738-1.146,1.721-1.146,2.767v4.604h-0.782c-0.432,0-0.782,0.351-0.782,0.783v4.928c0,0.432,0.35,0.782,0.782,0.782h10.951
	c0.433,0,0.783-0.351,0.783-0.782v-4.928c0-0.433-0.35-0.783-0.783-0.783H46.11v-0.369c0-0.206,0.084-0.407,0.23-0.553l4.882-4.883
	c0.739-0.739,1.146-1.722,1.146-2.767v-10.438C52.368,281.824,50.965,280.421,49.239,280.421 M46.11,307.487h-9.387v-3.364h9.387
	V307.487z M50.804,293.987c0,0.627-0.245,1.217-0.688,1.66l-4.883,4.883c-0.438,0.437-0.688,1.042-0.688,1.659v0.369h-6.258v-4.604
	c0-0.628,0.244-1.217,0.687-1.66l5.247-5.246c0.587-0.588,1.53-0.614,2.147-0.061L46.383,291c0.018,0.016,0.034,0.032,0.051,0.049
	c0.296,0.295,0.458,0.688,0.458,1.105c0,0.418-0.162,0.811-0.458,1.106l-3.887,3.887c-0.306,0.306-0.306,0.801,0,1.106
	c0.306,0.306,0.801,0.306,1.107,0l3.886-3.887c0.592-0.591,0.917-1.377,0.917-2.213c0-0.77-0.277-1.496-0.782-2.068v-6.537
	c0-0.861,0.702-1.563,1.564-1.563c0.863,0,1.565,0.702,1.565,1.563V293.987z"/>
<path fill="#86BC65" d="M28.745,302.559h-0.783v-4.604c0-1.046-0.407-2.028-1.146-2.767l-5.246-5.246
	c-0.809-0.809-1.956-1.085-2.995-0.817v-5.575c0-1.726-1.404-3.129-3.129-3.129c-1.725,0-3.129,1.403-3.129,3.129v10.438
	c0,1.045,0.407,2.027,1.146,2.767l4.883,4.883c0.146,0.146,0.229,0.347,0.229,0.553v0.369h-0.782c-0.432,0-0.782,0.351-0.782,0.782
	v4.929c0,0.432,0.35,0.782,0.782,0.782h10.952c0.431,0,0.782-0.351,0.782-0.782v-4.929
	C29.526,302.909,29.175,302.559,28.745,302.559 M14.568,295.647c-0.443-0.443-0.687-1.033-0.687-1.66V283.55
	c0-0.861,0.701-1.564,1.564-1.564c0.863,0,1.565,0.703,1.565,1.564v6.536c-0.506,0.572-0.783,1.299-0.783,2.068
	c0,0.836,0.326,1.622,0.917,2.213l3.912,3.911c0.305,0.306,0.8,0.306,1.106,0c0.305-0.306,0.305-0.801,0-1.106l-3.912-3.911
	c-0.295-0.296-0.458-0.688-0.458-1.106c0-0.417,0.163-0.811,0.458-1.105c0.017-0.017,0.034-0.033,0.052-0.049l0.013-0.012
	c0.617-0.554,1.56-0.526,2.147,0.061l5.247,5.247c0.444,0.442,0.687,1.031,0.687,1.659v4.604H20.14v-0.369
	c0-0.617-0.251-1.223-0.688-1.659L14.568,295.647z M27.961,307.487h-9.387v-3.364h9.387V307.487z"/>
<path fill="#86BC65" d="M32.342,269c-6.47,0-11.734,5.264-11.734,11.733c0,6.471,5.264,11.734,11.734,11.734
	c6.47,0,11.734-5.264,11.734-11.734C44.076,274.264,38.812,269,32.342,269 M32.342,290.903c-5.607,0-10.169-4.562-10.169-10.17
	c0-5.607,4.562-10.169,10.169-10.169s10.169,4.562,10.169,10.169C42.511,286.342,37.949,290.903,32.342,290.903"/>
<path fill="#86BC65" d="M37.744,274.035c-2.036-1.644-4.7-2.264-7.308-1.701c-0.422,0.092-0.691,0.508-0.6,0.931
	c0.091,0.422,0.508,0.689,0.93,0.599c2.144-0.462,4.329,0.044,5.995,1.39s2.622,3.343,2.622,5.48c0,3.883-3.159,7.041-7.041,7.041
	c-3.882,0-7.04-3.158-7.04-7.041c0-1.159,0.288-2.309,0.833-3.323c0.204-0.381,0.061-0.854-0.32-1.06
	c-0.381-0.204-0.855-0.062-1.059,0.319c-0.666,1.242-1.018,2.647-1.018,4.063c0,4.745,3.86,8.605,8.604,8.605
	c4.745,0,8.605-3.86,8.605-8.605C40.947,278.12,39.78,275.68,37.744,274.035"/>
<path fill="#86BC65" d="M64.209,28.126l-3.785,1.979c-0.486,0.254-0.801,0.821-0.801,1.443c0,0.621,0.315,1.187,0.801,1.443
	l2.814,1.471l0.023,0.013l6.461-3.38L64.209,28.126z"/>
<polygon fill="#86BC65" points="72.331,32.499 65.908,35.857 69.291,37.628 75.572,34.244 "/>
<path fill="#86BC65" d="M78.157,35.636l-6.244,3.363l5.655,2.957c0.177,0.093,0.366,0.139,0.556,0.139
	c0.19,0,0.379-0.046,0.555-0.139l5.689-2.975L78.157,35.636z"/>
<polygon fill="#86BC65" points="75.507,28.068 72.344,29.724 66.832,26.754 69.917,25.141 "/>
<polygon fill="#86BC65" points="81.356,31.13 78.157,32.853 74.953,31.128 78.152,29.453 "/>
<polygon fill="#86BC65" points="83.977,32.502 80.741,34.244 86.99,37.609 90.363,35.845 "/>
<path fill="#86BC65" d="M83.717,23.773l-5.563,2.911l-5.591-2.928l5.005-2.618c0.354-0.184,0.758-0.184,1.111,0L83.717,23.773z"/>
<polygon fill="#86BC65" points="89.45,26.772 83.964,29.727 80.799,28.069 86.365,25.159 "/>
<path fill="#86BC65" d="M96.624,31.548c0,0.621-0.314,1.187-0.801,1.442l-2.814,1.472h-0.001l-6.423-3.364l5.487-2.954l3.75,1.961
	C96.309,30.36,96.624,30.926,96.624,31.548"/>
<path fill="#86BC65" d="M95.822,35.934l-0.392-0.205l-16.721,8.745c-0.176,0.093-0.366,0.139-0.555,0.139s-0.379-0.046-0.556-0.139
	l-16.751-8.761l-0.423,0.221c-0.486,0.255-0.801,0.821-0.801,1.443c0,0.621,0.314,1.188,0.801,1.443l17.144,8.966
	c0.176,0.092,0.365,0.138,0.554,0.138c0.19,0,0.38-0.046,0.556-0.138l17.144-8.966c0.486-0.255,0.801-0.822,0.801-1.443
	C96.624,36.754,96.309,36.188,95.822,35.934"/>
<path fill="#86BC65" d="M95.822,41.848l-0.437-0.229l-16.676,8.723c-0.176,0.092-0.366,0.139-0.555,0.139s-0.379-0.047-0.556-0.139
	l-16.707-8.738l-0.467,0.244c-0.486,0.255-0.801,0.82-0.801,1.442s0.315,1.189,0.802,1.444L77.568,53.7
	c0.177,0.092,0.366,0.138,0.556,0.138s0.379-0.047,0.555-0.138l17.144-8.967c0.486-0.254,0.801-0.821,0.801-1.443
	S96.309,42.103,95.822,41.848"/>
<line fill="#272361" x1="161.624" y1="3" x2="161.624" y2="331"/>
<line fill="none" stroke="#010101" stroke-width="0.25" stroke-miterlimit="10" x1="161.624" y1="3" x2="161.624" y2="331"/>
<line fill="#4E4E4E" x1="117.624" y1="47" x2="160.624" y2="47"/>
<line fill="none" stroke="#010101" stroke-width="0.25" stroke-miterlimit="10" x1="117.624" y1="47" x2="160.624" y2="47"/>
<line fill="#4E4E4E" x1="161.624" y1="130" x2="204.624" y2="130"/>
<line fill="none" stroke="#010101" stroke-width="0.25" stroke-miterlimit="10" x1="161.624" y1="130" x2="204.624" y2="130"/>
<line fill="#4E4E4E" x1="119.624" y1="175" x2="162.624" y2="175"/>
<line fill="none" stroke="#010101" stroke-width="0.25" stroke-miterlimit="10" x1="119.624" y1="175" x2="162.624" y2="175"/>
<line fill="#4E4E4E" x1="161.624" y1="231" x2="204.624" y2="231"/>
<line fill="none" stroke="#010101" stroke-width="0.25" stroke-miterlimit="10" x1="161.624" y1="231" x2="204.624" y2="231"/>
<line fill="#4E4E4E" x1="117.624" y1="308" x2="160.624" y2="308"/>
<line fill="none" stroke="#010101" stroke-width="0.25" stroke-miterlimit="10" x1="117.624" y1="308" x2="160.624" y2="308"/>
</svg>
