                    <svg version="1.1" id="Layer_1" xmlns="http://www.w3.org/2000/svg"
                        xmlns:xlink="http://www.w3.org/1999/xlink" x="0px" y="0px" width="827.958px" height="536.974px"
                        viewBox="0 0 827.958 536.974" enable-background="new 0 0 827.958 536.974" xml:space="preserve">
                        <text transform="matrix(1 0 0 1 19.8887 431.5771)">
                            <tspan x="0" y="0" fill="#4E4E4E" font-family="'OpenSans-Light'" font-size="13">Return money with 15-20% ROI after completion 
                            </tspan>
                        </text>
                        <text transform="matrix(1 0 0 1 19.8887 447.1768)" fill="#4E4E4E" font-family="'OpenSans-Light'"
                            font-size="13">of Lock in Period and taking the Property Back.</text>
                        <polygon fill="#F0EDEE"
                            points="643.38,47.631 636.856,54.52 634.753,62.863 638.441,64.95 644.315,59.338 647.068,49.717 " />
                        <polygon fill="#F0EDEE" points="672.186,62.074 671.593,52.818 666.377,45.561 662.379,46.966 662.379,54.81 667.252,60.824 
	668.188,63.479 " />
                        <path fill="#F5F6F6" d="M662.379,46.966l-6.168-0.685l-2.917,2.502v4.456l5.447,15.654c0,0,8.288-3.563,8.646-7.905L662.379,46.966z
	" />
                        <path fill="#E7E7E7" d="M653.294,53.239l8.935,5.055c1.052,0.595,1.422,1.93,0.826,2.982c-0.596,1.051-1.931,1.421-2.983,0.826
	c1.053,0.595,1.423,1.93,0.826,2.982c-0.595,1.051-1.931,1.422-2.982,0.826c1.052,0.596,1.422,1.931,0.826,2.982
	c-0.595,1.052-1.931,1.421-2.983,0.826c1.053,0.595,1.423,1.93,0.827,2.982c-0.596,1.052-1.933,1.422-2.983,0.826l-15.16-8.576
	l8.627-15.233l2.414,1.366L653.294,53.239z" />
                        <polygon fill="#D5D3D3"
                            points="640.238,63.233 635.356,60.471 634.753,62.863 637.63,64.491 638.441,64.95 " />
                        <rect x="624.669" y="45.582"
                            transform="matrix(-0.4926 0.8703 -0.8703 -0.4926 990.7487 -473.5466)" fill="#84BE43"
                            width="17.516" height="12.953" />
                        <polygon fill="#D5D3D3"
                            points="671.253,59.903 667.405,61.255 668.188,63.479 672.186,62.074 672.029,59.627 " />
                        <polygon fill="#84BE43" points="684.283,57.778 678.604,41.265 666.377,45.561 672.186,62.074 " />
                        <polygon fill="#71A642" points="684.283,57.778 683.516,55.548 671.403,59.85 672.186,62.074 " />
                        <path fill="#E2E2E2" d="M653.879,29.168c-0.507,0-0.918-0.41-0.918-0.917v-4.602c0-0.506,0.411-0.917,0.918-0.917
	s0.918,0.411,0.918,0.917v4.602C654.797,28.758,654.386,29.168,653.879,29.168" />
                        <path fill="#E2E2E2" d="M643.398,32.088c-0.311,0-0.613-0.158-0.786-0.443l-2.381-3.939c-0.263-0.433-0.123-0.997,0.311-1.259
	c0.434-0.261,0.998-0.123,1.261,0.311l2.381,3.938c0.263,0.434,0.123,0.997-0.311,1.259
	C643.725,32.045,643.561,32.088,643.398,32.088" />
                        <path fill="#E2E2E2" d="M635.938,40.004c-0.146,0-0.29-0.033-0.426-0.105l-4.076-2.139c-0.449-0.236-0.621-0.79-0.386-1.239
	c0.235-0.449,0.79-0.621,1.239-0.385l4.075,2.139c0.449,0.236,0.622,0.79,0.385,1.239C636.586,39.826,636.269,40.004,635.938,40.004
	" />
                        <path fill="#E2E2E2" d="M664.358,32.088c-0.161,0-0.325-0.043-0.474-0.133c-0.434-0.262-0.572-0.826-0.311-1.26l2.381-3.937
	c0.262-0.434,0.827-0.573,1.26-0.311c0.435,0.262,0.573,0.826,0.312,1.259l-2.381,3.939C664.973,31.93,664.67,32.088,664.358,32.088
	" />
                        <path fill="#E2E2E2" d="M671.819,40.004c-0.33,0-0.648-0.178-0.812-0.49c-0.237-0.449-0.064-1.003,0.385-1.239l4.074-2.139
	c0.45-0.236,1.005-0.064,1.24,0.386c0.235,0.448,0.063,1.003-0.386,1.238l-4.075,2.14C672.109,39.971,671.964,40.004,671.819,40.004
	" />
                        <rect x="623.219" y="57.449"
                            transform="matrix(-0.8702 -0.4926 0.4926 -0.8702 1148.7935 419.8861)" fill="#71A642"
                            width="12.96" height="2.379" />
                        <path fill="#F5F6F6" d="M656.211,46.281c-2.328-0.258-4.582,0.91-5.712,2.961l-3.355,6.087c-0.584,1.058-0.198,2.39,0.86,2.973
	c1.06,0.583,2.391,0.198,2.975-0.861l2.315-4.202L656.211,46.281z" />
                        <path fill="#D7D7D7" d="M656.585,72.701c0.027-0.048,0.05-0.098,0.073-0.146c0.004-0.008,0.009-0.017,0.013-0.025l-17.057-9.65
	l-1.173,2.07l4.352,2.462l10.809,6.115c0.395,0.223,0.829,0.311,1.249,0.278c0.07-0.006,0.14-0.015,0.209-0.028
	C655.681,73.668,656.25,73.292,656.585,72.701" />
                        <path fill="#F6F6F6" d="M222.08,135.54l-8.561-8.525h-18.099c-1.151,0-2.083,0.932-2.083,2.083v33.422
	c0,1.151,0.932,2.083,2.083,2.083h27.272v-27.587C222.693,136.462,222.473,135.931,222.08,135.54" />
                        <path fill="#E6E6E5" d="M199.59,142.05h16.494c0.232,0,0.523-0.32,0.523-0.572c0-0.539-0.291-0.86-0.523-0.86H199.59
	c-0.233,0-0.524,0.321-0.524,0.86C199.065,141.73,199.356,142.05,199.59,142.05" />
                        <path fill="#E6E6E5" d="M199.854,136.68h6.563c0.231,0,0.525-0.319,0.525-0.572c0-0.539-0.294-0.86-0.525-0.86h-6.563
	c-0.493,0-0.788,0.321-0.788,0.86C199.065,136.361,199.36,136.68,199.854,136.68" />
                        <path fill="#E6E6E5" d="M216.084,145.63H199.59c-0.234,0-0.525,0.32-0.525,0.859c0,0.253,0.291,0.573,0.525,0.573h16.494
	c0.232,0,0.523-0.32,0.523-0.573C216.607,145.95,216.316,145.63,216.084,145.63" />
                        <path fill="#E6E6E5" d="M216.084,151H199.59c-0.234,0-0.525,0.319-0.525,0.859c0,0.252,0.291,0.573,0.525,0.573h16.494
	c0.232,0,0.523-0.321,0.523-0.573C216.607,151.319,216.316,151,216.084,151" />
                        <path fill="#E6E6E5" d="M216.084,155.653H199.59c-0.234,0-0.525,0.32-0.525,0.859c0,0.253,0.291,0.574,0.525,0.574h16.494
	c0.232,0,0.523-0.321,0.523-0.574C216.607,155.973,216.316,155.653,216.084,155.653" />
                        <path fill="#84BE43"
                            d="M213.386,127.015v7.225c0,1.15,0.933,2.083,2.083,2.083h7.225L213.386,127.015z" />
                        <path fill="#84BE43" d="M221.262,151.357c4.35,0,7.875,3.526,7.875,7.876s-3.525,7.876-7.875,7.876s-7.876-3.526-7.876-7.876
	S216.912,151.357,221.262,151.357" />
                        <path fill="#FFFFFF" d="M225.285,155.413c-0.288-0.207-0.682-0.134-0.881,0.164l-3.545,5.267l-2.501-2.124
	c-0.27-0.23-0.669-0.189-0.891,0.091c-0.223,0.28-0.184,0.693,0.089,0.922l3.03,2.574c0.114,0.096,0.256,0.148,0.401,0.148
	c0.027,0,0.058-0.002,0.087-0.006c0.175-0.025,0.332-0.124,0.433-0.274l3.937-5.849C225.644,156.028,225.572,155.62,225.285,155.413
	" />
                        <path fill="#84BE43" d="M581.171,49.228c-15.754,26.689-31.507,53.378-47.262,80.067c-11.694,19.813-23.39,39.625-35.084,59.438
	c0.754-0.308,1.508-0.616,2.262-0.925c-29.246-12-58.492-24-87.737-36c-0.577-0.236-1.153-0.473-1.729-0.709
	c-0.584-0.24-1.561,0.023-1.949,0.519c-19.411,24.735-38.821,49.47-58.231,74.206c-0.289,0.367-0.577,0.735-0.865,1.103
	c0.206-0.263,0.451-0.284-0.251,0.029c-2.02,0.903-4.039,1.808-6.059,2.711c-8.354,3.738-16.707,7.477-25.061,11.216l-47.15,21.1
	c-2.294,1.026-3.913,3.647-5.55,5.466c-5.345,5.94-10.69,11.881-16.036,17.822c-14.043,15.605-28.086,31.212-42.129,46.817
	c-4.637,5.153-9.273,10.307-13.91,15.459c-1.725,1.916,1.107,4.756,2.84,2.83c22.255-24.732,44.511-49.465,66.766-74.196
	c3.146-3.496,6.291-6.992,9.437-10.487c0.445-0.494-0.604,0.292-0.021,0.031c0.621-0.278,1.243-0.556,1.864-0.834l8.071-3.612
	c18.453-8.258,36.906-16.516,55.358-24.773c4.717-2.111,9.434-4.222,14.15-6.333c0.836-0.374,1.5-1.664,2.029-2.338
	c1.778-2.267,3.558-4.534,5.337-6.801c12.546-15.989,25.092-31.977,37.64-47.965c4.869-6.207,9.739-12.413,14.61-18.62
	c-0.651,0.174-1.3,0.346-1.949,0.518c29.245,12,58.491,24.001,87.737,36c0.576,0.238,1.153,0.474,1.729,0.71
	c0.822,0.337,1.848-0.222,2.263-0.926c15.754-26.688,31.508-53.376,47.262-80.066c11.695-19.813,23.39-39.626,35.085-59.438
	C585.954,49.014,582.482,47.003,581.171,49.228" />
                        <path fill="#FFFFFF" d="M544.546,54.156c-0.036-19.989,16.139-36.223,36.128-36.259c19.989-0.036,36.224,16.139,36.26,36.128
	c0.036,19.989-16.14,36.224-36.129,36.26S544.582,74.146,544.546,54.156" />
                        <path fill="#84BE43" d="M556.07,54.496c-0.024-13.625,11.001-24.688,24.625-24.713c13.625-0.024,24.689,10.999,24.714,24.624
	s-11,24.69-24.625,24.714C567.16,79.145,556.094,68.121,556.07,54.496" />
                        <path fill="#FFFFFF" d="M383.965,153.639c-0.027-14.894,12.024-26.99,26.921-27.018c14.894-0.026,26.989,12.027,27.017,26.92
	c0.027,14.897-12.025,26.993-26.92,27.019C396.086,180.587,383.991,168.535,383.965,153.639" />
                        <path fill="#84BE43" d="M485.683,188.442c-0.014-7.846,6.334-14.215,14.179-14.229c7.844-0.014,14.215,6.333,14.229,14.177
	c0.014,7.845-6.335,14.216-14.18,14.229C492.067,202.634,485.697,196.287,485.683,188.442" />
                        <path fill="#84BE43" d="M391.803,153.682c-0.02-10.504,8.479-19.034,18.983-19.053c10.504-0.019,19.033,8.481,19.053,18.985
	c0.019,10.503-8.48,19.033-18.983,19.051C400.35,172.685,391.822,164.186,391.803,153.682" />
                        <path fill="#FFFFFF" d="M250.635,266.983c-0.021-11.278,9.105-20.438,20.387-20.459c11.277-0.02,20.438,9.105,20.459,20.386
	c0.021,11.279-9.107,20.439-20.386,20.46C259.814,287.391,250.656,278.264,250.635,266.983" />
                        <path fill="#84BE43" d="M340.866,227.707c-0.011-6.113,4.936-11.076,11.047-11.087c6.112-0.012,11.076,4.935,11.087,11.047
	s-4.935,11.076-11.047,11.087C345.842,238.765,340.877,233.819,340.866,227.707" />
                        <path fill="#84BE43" d="M257.534,267.356c-0.015-7.688,6.207-13.931,13.895-13.945c7.688-0.014,13.931,6.206,13.944,13.895
	c0.014,7.688-6.206,13.932-13.895,13.946C263.791,281.265,257.548,275.044,257.534,267.356" />
                        <polygon fill="#84BE43"
                            points="216.189,347.601 197.589,345.829 189.107,329.919 184.475,366.168 " />
                        <path fill="#84BE43" d="M216.186,345.596c-6.2-0.59-12.4-1.181-18.601-1.771c0.577,0.33,1.154,0.66,1.732,0.99l-8.48-15.911
	c-1.041-1.954-3.506-0.774-3.735,1.019c-1.544,12.084-3.089,24.166-4.633,36.25c-0.201,1.566,1.837,2.417,3.02,1.726
	c10.571-6.189,21.144-12.379,31.715-18.567c2.23-1.306,0.206-4.768-2.029-3.458c-10.572,6.188-21.144,12.378-31.716,18.566
	c1.007,0.575,2.014,1.15,3.02,1.726c1.544-12.083,3.09-24.166,4.634-36.249c-1.244,0.34-2.489,0.679-3.734,1.019
	c1.465,2.749,2.93,5.497,4.395,8.246c1.014,1.9,2.026,3.801,3.039,5.701c0.447,0.839,0.892,2.171,1.767,2.681
	c0.827,0.482,2.292,0.395,3.208,0.481c2.146,0.204,4.294,0.409,6.44,0.613c3.321,0.316,6.643,0.633,9.965,0.949
	C218.768,349.851,218.736,345.839,216.186,345.596" />
                        <text transform="matrix(1 0 0 1 713.4727 47.3086)" fill="#4E4E4E" font-family="'OpenSans-Light'"
                            font-size="13">Land Acquisition</text>
                        <text transform="matrix(1 0 0 1 713.4727 62.9087)" fill="#4E4E4E" font-family="'OpenSans-Light'"
                            font-size="13">by PropTrading.</text>
                        <text transform="matrix(1 0 0 1 257.1211 136.3584)" fill="#4E4E4E"
                            font-family="'OpenSans-Light'" font-size="13">Registring land on</text>
                        <text transform="matrix(1 0 0 1 257.1211 151.9585)" fill="#4E4E4E"
                            font-family="'OpenSans-Light'" font-size="13">Investor Name in </text>
                        <text transform="matrix(1 0 0 1 257.1211 167.5586)" fill="#4E4E4E"
                            font-family="'OpenSans-Light'" font-size="13">return as Secured</text>
                        <text transform="matrix(1 0 0 1 257.1211 183.1587)" fill="#4E4E4E"
                            font-family="'OpenSans-Light'" font-size="13">collatoral.</text>
                        <text transform="matrix(1 0 0 1 363.4609 304.7734)" fill="#4E4E4E"
                            font-family="'OpenSans-Light'" font-size="13">Handing over registry and</text>
                        <text transform="matrix(1 0 0 1 363.4609 320.374)" fill="#4E4E4E" font-family="'OpenSans-Light'"
                            font-size="13">buy back agreement </text>
                        <text transform="matrix(1 0 0 1 363.4609 335.9736)" fill="#4E4E4E"
                            font-family="'OpenSans-Light'" font-size="13">to investor.</text>
                        <path fill="#E4E4E4"
                            d="M342.054,296.602c0.039,0-19.87-7.637-20.38-7.833c-0.392,0.157-20.42,7.833-20.381,7.833v14.412
	c0,9.986,2.861,23.027,20.381,27.884c17.479-4.856,20.341-18.133,20.341-27.884C342.054,306.079,342.054,296.602,342.054,296.602" />
                        <path fill="#FFFFFF"
                            d="M338.096,299.304c0.039,0-16.03-6.462-16.461-6.618c-0.353,0.117-16.5,6.345-16.461,6.306v12.101
	c0,8.381,1.646,19.816,16.461,23.89c14.774-4.073,16.461-15.704,16.461-23.89C338.135,306.94,338.135,299.304,338.096,299.304" />
                        <path fill="#84BE43" d="M329.434,309.995c-0.117-0.392-0.47-0.666-0.901-0.744l-4.077-0.587l-1.763-3.604
	c-0.196-0.392-0.588-0.627-1.019-0.627c-0.432,0-0.823,0.235-1.02,0.627l-1.764,3.604l-4.075,0.587
	c-0.432,0.078-0.784,0.353-0.901,0.744c-0.118,0.392-0.041,0.822,0.273,1.097l2.979,2.938l-0.706,4.072
	c-0.078,0.392,0.119,0.823,0.471,1.058c0.195,0.118,0.431,0.196,0.666,0.196c0.196,0,0.392-0.039,0.549-0.118l3.566-1.88l3.566,1.88
	c0.157,0.079,0.353,0.118,0.549,0.118c0.235,0,0.471-0.078,0.666-0.196c0.354-0.234,0.549-0.665,0.471-1.058l-0.705-4.072
	l2.979-2.938C329.473,310.778,329.591,310.387,329.434,309.995" />
                        <text transform="matrix(1 0 0 1 604.9482 202.9414)" fill="#4E4E4E"
                            font-family="'OpenSans-Light'" font-size="13">Taking Money From</text>
                        <text transform="matrix(1 0 0 1 604.9482 218.541)" fill="#4E4E4E" font-family="'OpenSans-Light'"
                            font-size="13">Investor</text>
                        <path fill="#E3AF24" d="M572.735,218.774c-6.876,0-12.45-1.418-12.45-2.873v3.351c0.004,1.453,5.576,2.876,12.45,2.876
	c6.875,0,12.447-1.423,12.451-2.876v-3.351C585.187,217.356,579.612,218.774,572.735,218.774" />
                        <path fill="#F3BF1C" d="M571.299,213.507c-6.876,0-12.45-1.419-12.45-2.873v3.35c0.003,1.454,5.576,2.876,12.45,2.876
	s12.447-1.422,12.451-2.876v-3.35C583.75,212.088,578.175,213.507,571.299,213.507" />
                        <path fill="#E3AF24" d="M574.172,208.239c-6.876,0-12.45-1.419-12.45-2.873v3.35c0.004,1.454,5.576,2.875,12.45,2.875
	c6.875,0,12.447-1.421,12.451-2.875v-3.35C586.623,206.82,581.049,208.239,574.172,208.239" />
                        <path fill="#FFD94A" d="M583.75,199.682c0,1.454-5.575,2.811-12.451,2.811s-12.45-1.357-12.45-2.811
	c0-1.455,5.574-2.457,12.45-2.457S583.75,198.227,583.75,199.682" />
                        <path fill="#F3BF1C" d="M571.299,202.492c-6.876,0-12.45-1.418-12.45-2.873v3.351c0.003,1.454,5.576,2.875,12.45,2.875
	s12.447-1.421,12.451-2.875v-3.351C583.75,201.074,578.175,202.492,571.299,202.492" />
                        <path fill="#DBA927" d="M560.764,201.092v3.35c0.291,0.107,0.61,0.211,0.958,0.309v-3.35
	C561.374,201.302,561.055,201.198,560.764,201.092" />
                        <path fill="#DBA927" d="M580.877,201.4v3.351c0.348-0.099,0.666-0.203,0.957-0.31v-3.35
	C581.543,201.198,581.225,201.301,580.877,201.4" />
                        <path fill="#DBA927" d="M563.158,201.748v3.351c0.307,0.063,0.626,0.124,0.958,0.18v-3.35
	C563.784,201.872,563.465,201.811,563.158,201.748" />
                        <path fill="#DBA927" d="M578.482,201.929v3.352c0.332-0.058,0.65-0.119,0.957-0.182v-3.351
	C579.133,201.812,578.814,201.872,578.482,201.929" />
                        <path fill="#DBA927" d="M565.553,202.143v3.352c0.312,0.04,0.631,0.077,0.957,0.11v-3.351
	C566.184,202.22,565.864,202.183,565.553,202.143" />
                        <path fill="#DBA927" d="M576.088,202.254v3.352c0.327-0.035,0.646-0.072,0.958-0.112v-3.351
	C576.734,202.184,576.415,202.221,576.088,202.254" />
                        <path fill="#DBA927" d="M567.947,202.377v3.352c0.314,0.022,0.633,0.042,0.957,0.057v-3.351
	C568.58,202.418,568.262,202.399,567.947,202.377" />
                        <path fill="#DBA927" d="M573.693,202.435v3.352c0.324-0.016,0.644-0.036,0.958-0.058v-3.352
	C574.337,202.399,574.018,202.417,573.693,202.435" />
                        <path fill="#DBA927" d="M571.299,202.492c-0.16,0-0.319-0.001-0.479-0.003v3.353c0.159,0.002,0.318,0.003,0.479,0.003
	s0.32-0.001,0.479-0.003v-3.353C571.619,202.491,571.459,202.492,571.299,202.492" />
                        <path fill="#C3922D" d="M563.637,206.838v3.35c0.291,0.107,0.61,0.211,0.958,0.309v-3.35
	C564.247,207.048,563.928,206.944,563.637,206.838" />
                        <path fill="#C3922D" d="M583.75,207.146v3.351c0.348-0.099,0.666-0.203,0.958-0.31v-3.35
	C584.416,206.945,584.098,207.047,583.75,207.146" />
                        <path fill="#C3922D" d="M566.031,207.494v3.351c0.307,0.064,0.626,0.124,0.958,0.181v-3.35
	C566.657,207.618,566.338,207.558,566.031,207.494" />
                        <path fill="#C3922D" d="M581.355,207.676v3.351c0.332-0.058,0.65-0.118,0.958-0.182v-3.351
	C582.006,207.559,581.688,207.618,581.355,207.676" />
                        <path fill="#C3922D" d="M568.426,207.89v3.352c0.312,0.04,0.631,0.077,0.958,0.11V208
	C569.057,207.967,568.737,207.93,568.426,207.89" />
                        <path fill="#C3922D" d="M578.961,208v3.352c0.327-0.035,0.646-0.072,0.958-0.111v-3.351C579.607,207.93,579.288,207.967,578.961,208
	" />
                        <path fill="#C3922D" d="M570.82,208.124v3.352c0.314,0.021,0.634,0.041,0.958,0.057v-3.352
	C571.454,208.165,571.135,208.145,570.82,208.124" />
                        <path fill="#C3922D" d="M576.566,208.181v3.353c0.324-0.017,0.644-0.037,0.958-0.058v-3.352
	C577.21,208.146,576.891,208.165,576.566,208.181" />
                        <path fill="#C3922D" d="M574.172,208.239c-0.16,0-0.319-0.002-0.479-0.003v3.353c0.159,0.001,0.318,0.002,0.479,0.002
	c0.161,0,0.32-0.001,0.479-0.002v-3.353C574.492,208.237,574.333,208.239,574.172,208.239" />
                        <path fill="#DBA927" d="M560.764,212.105v3.35c0.291,0.107,0.61,0.211,0.958,0.309v-3.35
	C561.374,212.315,561.055,212.211,560.764,212.105" />
                        <path fill="#DBA927" d="M580.877,212.414v3.351c0.348-0.099,0.666-0.203,0.957-0.31v-3.35
	C581.543,212.213,581.225,212.315,580.877,212.414" />
                        <path fill="#DBA927" d="M563.158,212.762v3.352c0.307,0.063,0.626,0.124,0.958,0.18v-3.35
	C563.784,212.886,563.465,212.826,563.158,212.762" />
                        <path fill="#DBA927" d="M578.482,212.943v3.351c0.332-0.057,0.65-0.118,0.957-0.181v-3.352
	C579.133,212.826,578.814,212.885,578.482,212.943" />
                        <path fill="#DBA927" d="M565.553,213.157v3.352c0.312,0.04,0.631,0.077,0.957,0.11v-3.351
	C566.184,213.234,565.864,213.197,565.553,213.157" />
                        <path fill="#DBA927" d="M576.088,213.268v3.352c0.327-0.034,0.646-0.072,0.958-0.111v-3.351
	C576.734,213.198,576.415,213.234,576.088,213.268" />
                        <path fill="#DBA927" d="M567.947,213.392v3.352c0.314,0.021,0.633,0.042,0.957,0.057v-3.352
	C568.58,213.433,568.262,213.413,567.947,213.392" />
                        <path fill="#DBA927" d="M573.693,213.448v3.353c0.324-0.016,0.644-0.037,0.958-0.058v-3.352
	C574.337,213.413,574.018,213.432,573.693,213.448" />
                        <path fill="#DBA927" d="M571.299,213.507c-0.16,0-0.319-0.002-0.479-0.003v3.353c0.159,0.001,0.318,0.003,0.479,0.003
	s0.32-0.002,0.479-0.003v-3.353C571.619,213.505,571.459,213.507,571.299,213.507" />
                        <path fill="#C3922D" d="M562.2,217.373v3.35c0.291,0.107,0.61,0.211,0.958,0.31v-3.349
	C562.811,217.583,562.491,217.48,562.2,217.373" />
                        <path fill="#C3922D" d="M582.313,217.683v3.35c0.348-0.099,0.666-0.202,0.957-0.31v-3.35
	C582.979,217.48,582.661,217.583,582.313,217.683" />
                        <path fill="#C3922D" d="M564.595,218.03v3.351c0.307,0.063,0.626,0.124,0.958,0.181v-3.351
	C565.221,218.154,564.901,218.094,564.595,218.03" />
                        <path fill="#C3922D" d="M579.919,218.211v3.351c0.332-0.057,0.651-0.117,0.958-0.181v-3.351
	C580.57,218.094,580.251,218.154,579.919,218.211" />
                        <path fill="#C3922D" d="M566.989,218.425v3.352c0.312,0.04,0.631,0.077,0.958,0.11v-3.351
	C567.62,218.502,567.301,218.465,566.989,218.425" />
                        <path fill="#C3922D" d="M577.524,218.535v3.352c0.327-0.033,0.646-0.071,0.958-0.11v-3.352
	C578.17,218.465,577.852,218.503,577.524,218.535" />
                        <path fill="#C3922D" d="M569.384,218.659v3.352c0.313,0.022,0.633,0.042,0.957,0.058v-3.353
	C570.017,218.7,569.697,218.681,569.384,218.659" />
                        <path fill="#C3922D" d="M575.13,218.716v3.354c0.324-0.017,0.644-0.036,0.958-0.059v-3.352
	C575.773,218.681,575.454,218.7,575.13,218.716" />
                        <path fill="#C3922D" d="M572.735,218.774c-0.16,0-0.319-0.001-0.479-0.003v3.353c0.16,0.002,0.319,0.004,0.479,0.004
	c0.161,0,0.32-0.002,0.479-0.004v-3.353C573.056,218.773,572.896,218.774,572.735,218.774" />
                        <path fill="#FDC72F" d="M583.372,214.643c-1.359,1.196-6.248,2.217-12.073,2.217c-4.554,0-8.535-0.624-10.706-1.468
	c-0.2,0.181-0.308,0.372-0.308,0.572c0,1.454,5.574,2.811,12.45,2.811c6.877,0,12.45-1.357,12.45-2.811
	C585.186,215.461,584.523,215.014,583.372,214.643" />
                        <path fill="#FFD94A" d="M574.172,211.591c-6.327,0-11.548-1.204-12.342-2.529c-1.858,0.421-2.981,0.981-2.981,1.633
	c0,1.456,5.574,2.812,12.45,2.812s12.451-1.356,12.451-2.812c0-0.063-0.016-0.125-0.036-0.188
	C581.43,211.15,578.004,211.591,574.172,211.591" />
                        <path fill="#FDC72F" d="M583.268,203.713c-1.49,1.159-6.282,2.132-11.969,2.132c-3.672,0-6.972-0.406-9.251-1.006
	c-0.211,0.186-0.326,0.384-0.326,0.589c0,1.455,5.574,2.811,12.45,2.811c6.877,0,12.451-1.356,12.451-2.811
	C586.623,204.733,585.348,204.142,583.268,203.713" />
                        <text transform="matrix(1 0 0 1 642.0156 464.2344)" fill="#010101"
                            font-family="'OpenSans-Light'" font-size="13">.</text>
                    </svg>